<svg version="1.2" xmlns="http://www.w3.org/2000/svg" viewBox="0 0 134 26" width="134" height="26"><style>.a{fill:#c4ee18}</style><path class="a" d="m124 26c5.5 0 10-4.5 10-10 0-5.5-4.5-10-10-10-5.5 0-10 4.5-10 10 0 5.5 4.5 10 10 10z"/><path class="a" d="m75.5 5c1.4 0 2.5-1.1 2.5-2.5 0-1.4-1.1-2.5-2.5-2.5-1.4 0-2.5 1.1-2.5 2.5 0 1.4 1.1 2.5 2.5 2.5z"/><path  d="m77.9 6h-4.8q0 0-0.1 0.2 0 0.1 0 0.4v18.8c0 0.3 0.1 0.6 0.1 0.6h4.8q0 0 0.1-0.2 0-0.1 0-0.4v-18.8q0-0.3 0-0.4-0.1-0.2-0.1-0.2z"/><path  d="m84.9 6h-4.7q-0.1 0-0.2 0.2 0 0.1 0 0.4v18.8c0 0.3 0.1 0.6 0.2 0.6h4.7q0 0 0.1-0.2 0-0.1 0-0.4v-18.8q0-0.3 0-0.4-0.1-0.2-0.1-0.2z"/><path  d="m98.9 6h-4.7q-0.1 0-0.2 0.2 0 0.1 0 0.4v18.8c0 0.3 0.1 0.6 0.2 0.6h4.7q0 0 0.1-0.2 0-0.1 0-0.4v-18.8q0-0.3 0-0.4-0.1-0.2-0.1-0.2z"/><path  d="m24.9 6h-4.7q-0.1 0-0.2 0.2 0 0.1 0 0.4v18.8c0 0.3 0.1 0.6 0.2 0.6h4.7q0 0 0.1-0.2 0-0.1 0-0.4v-18.8q0-0.3 0-0.4-0.1-0.2-0.1-0.2z"/><path  d="m63.9 26h-4.7q-0.1 0-0.2-0.2 0-0.1 0-0.4v-18.8c0-0.3 0.1-0.6 0.2-0.6h4.7q0 0 0.1 0.2 0 0.1 0 0.4v18.8q0 0.3 0 0.4-0.1 0.2-0.1 0.2z"/><path  d="m105.9 26h-4.7q-0.1 0-0.2-0.2 0-0.1 0-0.4v-18.8c0-0.3 0.1-0.6 0.2-0.6h4.7q0 0 0.1 0.2 0 0.1 0 0.4v18.8q0 0.3 0 0.4-0.1 0.2-0.1 0.2z"/><path  d="m30.9 21h-4.7q-0.1 0-0.2 0 0 0.1 0 0.1v4.8c0 0 0.1 0.1 0.2 0.1h4.7q0 0 0.1 0 0-0.1 0-0.1v-4.8q0 0 0-0.1-0.1 0-0.1 0z"/><path  d="m69.9 11h-4.7q-0.1 0-0.2 0 0-0.1 0-0.1v-4.8c0 0 0.1-0.1 0.2-0.1h4.7q0 0 0.1 0 0 0.1 0 0.1v4.8q0 0 0 0.1-0.1 0-0.1 0z"/><path  d="m111.9 11h-4.7q-0.1 0-0.2 0 0-0.1 0-0.1v-4.8c0 0 0.1-0.1 0.2-0.1h4.7q0 0 0.1 0 0 0.1 0 0.1v4.8q0 0 0 0.1-0.1 0-0.1 0z"/><path  d="m111.9 17h-4.7q-0.1 0-0.2 0 0-0.1 0-0.1v-4.8c0 0 0.1-0.1 0.2-0.1h4.7q0 0 0.1 0 0 0.1 0 0.1v4.8q0 0 0 0.1-0.1 0-0.1 0z"/><path  d="m93 15.6l-3.4 3.4q0 0-0.1 0 0 0-0.1 0l-3.3-3.4c0 0 0-0.1 0-0.2l3.3-3.3q0.1 0 0.1 0 0.1 0 0.1 0l3.4 3.3q0 0.1 0 0.1 0 0.1 0 0.1z"/><path  d="m57.9 26h-4.7q-0.1 0-0.2 0 0-0.1 0-0.1v-4.8c0 0 0.1-0.1 0.2-0.1h4.7q0 0 0.1 0 0 0.1 0 0.1v4.8q0 0 0 0.1-0.1 0-0.1 0z"/><path  d="m18 6q0.1 0 0.1 0.2 0 0.2-0.1 0.4l-4.8 18.9q-0.1 0.2-0.2 0.4-0.1 0.1-0.1 0.1h-5.4c0.5-1.1 0.8-1.5 0.8-1.8l4.9-17.7q0.1-0.2 0.2-0.4 0-0.1 0.1-0.1z"/><path class="a" d="m0.1 6q-0.1 0-0.1 0.2 0 0.2 0.1 0.4l4.8 18.9q0 0.2 0.1 0.4 0.1 0.1 0.2 0.1h5.4c-0.5-1.1-0.8-1.5-0.9-1.8l-4.8-17.7q-0.1-0.2-0.2-0.4-0.1-0.1-0.1-0.1z"/><path  d="m51 26q0.1 0 0.1-0.2 0-0.2-0.1-0.4l-4.8-18.9q-0.1-0.2-0.2-0.4-0.1-0.1-0.1-0.1h-5.4c0.5 1.1 0.8 1.5 0.9 1.8l4.8 17.7q0.1 0.2 0.2 0.4 0 0.1 0.1 0.1z"/><path  d="m33.1 26q-0.1 0-0.1-0.2 0-0.2 0.1-0.4l4.8-18.9q0-0.2 0.1-0.4 0.1-0.1 0.2-0.1h5.4c-0.5 1.1-0.8 1.5-0.9 1.8l-4.8 17.7q-0.1 0.2-0.2 0.4-0.1 0.1-0.1 0.1z"/></svg>