<svg width="134" height="26" viewBox="0 0 134 26" fill="none" xmlns="http://www.w3.org/2000/svg">
<path d="M123.994 25.9995C129.51 25.9995 133.983 21.5225 133.983 15.9995C133.983 10.4765 129.51 5.99951 123.993 5.99951C118.477 5.99951 114.005 10.4765 114.005 15.9995C114.005 21.5225 118.477 25.9995 123.994 25.9995Z" fill="#C4EE18"/>
<path d="M75.5 5C76.8805 5 78 3.88075 78 2.5C78 1.11925 76.8805 0 75.4998 0C74.1192 0 73 1.11925 73 2.5C73 3.88075 74.1192 5 75.5 5Z" fill="#C4EE18"/>
<path d="M77.8521 5.99951H73.1477C73.1085 5.99979 73.0709 6.06219 73.0432 6.17301C73.0156 6.28383 73 6.43402 73 6.59061V25.4084C73 25.734 73.0662 25.9995 73.1479 25.9995H77.8521C77.8913 25.9995 77.9289 25.9372 77.9567 25.8264C77.9844 25.7155 78 25.5652 78 25.4084V6.59061C78 6.43384 77.9844 6.28349 77.9567 6.17264C77.9289 6.06179 77.8913 5.99951 77.8521 5.99951Z" fill="black"/>
<path d="M84.8574 5.99951H80.153C80.1139 5.99979 80.0763 6.06219 80.0486 6.17301C80.0209 6.28383 80.0054 6.43402 80.0054 6.59061V25.4084C80.0054 25.734 80.0716 25.9995 80.1533 25.9995H84.8574C84.8967 25.9995 84.9343 25.9372 84.962 25.8264C84.9898 25.7155 85.0054 25.5652 85.0054 25.4084V6.59061C85.0054 6.43384 84.9898 6.28349 84.962 6.17264C84.9343 6.06179 84.8967 5.99951 84.8574 5.99951Z" fill="black"/>
<path d="M98.8574 5.99951H94.153C94.1139 5.99979 94.0763 6.06219 94.0486 6.17301C94.0209 6.28383 94.0054 6.43402 94.0054 6.59061V25.4084C94.0054 25.734 94.0716 25.9995 94.1533 25.9995H98.8574C98.8967 25.9995 98.9343 25.9372 98.962 25.8264C98.9898 25.7155 99.0054 25.5652 99.0054 25.4084V6.59061C99.0054 6.43384 98.9898 6.28349 98.962 6.17264C98.9343 6.06179 98.8967 5.99951 98.8574 5.99951Z" fill="black"/>
<path d="M24.8574 5.99951H20.153C20.1139 5.99979 20.0763 6.06219 20.0486 6.17301C20.0209 6.28383 20.0054 6.43402 20.0054 6.59061V25.4084C20.0054 25.734 20.0716 25.9995 20.1533 25.9995H24.8574C24.8967 25.9995 24.9343 25.9372 24.962 25.8264C24.9898 25.7155 25.0054 25.5652 25.0054 25.4084V6.59061C25.0054 6.43384 24.9898 6.28349 24.962 6.17264C24.9343 6.06179 24.8967 5.99951 24.8574 5.99951Z" fill="black"/>
<path d="M63.8574 25.9995H59.153C59.1139 25.9992 59.0763 25.9368 59.0486 25.826C59.0209 25.7152 59.0054 25.565 59.0054 25.4084V6.59062C59.0054 6.26499 59.0716 5.99951 59.1533 5.99951H63.8574C63.8967 5.99951 63.9343 6.06179 63.962 6.17264C63.9898 6.2835 64.0054 6.43385 64.0054 6.59062V25.4084C64.0054 25.5652 63.9898 25.7155 63.962 25.8264C63.9343 25.9372 63.8967 25.9995 63.8574 25.9995Z" fill="black"/>
<path d="M105.857 25.9995H101.153C101.114 25.9992 101.076 25.9368 101.049 25.826C101.021 25.7152 101.005 25.565 101.005 25.4084V6.59062C101.005 6.26499 101.072 5.99951 101.153 5.99951H105.857C105.897 5.99951 105.934 6.06179 105.962 6.17264C105.99 6.2835 106.005 6.43385 106.005 6.59062V25.4084C106.005 25.5652 105.99 25.7155 105.962 25.8264C105.934 25.9372 105.897 25.9995 105.857 25.9995Z" fill="black"/>
<path d="M30.8574 20.9995H26.153C26.1139 20.9996 26.0763 21.0152 26.0486 21.0429C26.0209 21.0706 26.0054 21.1081 26.0054 21.1473V25.8517C26.0054 25.9331 26.0716 25.9995 26.1533 25.9995H30.8574C30.8967 25.9995 30.9343 25.9839 30.962 25.9562C30.9898 25.9285 31.0054 25.8909 31.0054 25.8517V21.1473C31.0054 21.1081 30.9898 21.0705 30.962 21.0428C30.9343 21.0151 30.8967 20.9995 30.8574 20.9995Z" fill="black"/>
<path d="M69.8574 10.9995H65.153C65.1139 10.9994 65.0763 10.9838 65.0486 10.9561C65.0209 10.9284 65.0054 10.8909 65.0054 10.8517V6.14729C65.0054 6.06588 65.0716 5.99951 65.1533 5.99951H69.8574C69.8967 5.99951 69.9343 6.01508 69.962 6.04279C69.9898 6.07051 70.0054 6.1081 70.0054 6.14729V10.8517C70.0054 10.8909 69.9898 10.9285 69.962 10.9562C69.9343 10.9839 69.8967 10.9995 69.8574 10.9995Z" fill="black"/>
<path d="M111.857 10.9995H107.153C107.114 10.9994 107.076 10.9838 107.049 10.9561C107.021 10.9284 107.005 10.8909 107.005 10.8517V6.14729C107.005 6.06588 107.072 5.99951 107.153 5.99951H111.857C111.897 5.99951 111.934 6.01508 111.962 6.04279C111.99 6.07051 112.005 6.10809 112.005 6.14729V10.8517C112.005 10.8909 111.99 10.9285 111.962 10.9562C111.934 10.9839 111.897 10.9995 111.857 10.9995Z" fill="black"/>
<path d="M111.857 16.9995H107.153C107.114 16.9994 107.076 16.9838 107.049 16.9561C107.021 16.9284 107.005 16.8909 107.005 16.8517V12.1473C107.005 12.0659 107.072 11.9995 107.153 11.9995H111.857C111.897 11.9995 111.934 12.0151 111.962 12.0428C111.99 12.0705 112.005 12.1081 112.005 12.1473V16.8517C112.005 16.8909 111.99 16.9285 111.962 16.9562C111.934 16.9839 111.897 16.9995 111.857 16.9995Z" fill="black"/>
<path d="M92.9719 15.6399L89.6454 18.9664C89.6177 18.994 89.5801 19.0096 89.5409 19.0096C89.5018 19.0095 89.4642 18.994 89.4365 18.9663L86.11 15.6398C86.0524 15.5822 86.0523 15.4885 86.1101 15.4307L89.4364 12.1043C89.4642 12.0766 89.5018 12.061 89.541 12.061C89.5802 12.061 89.6178 12.0765 89.6455 12.1042L92.9721 15.4308C92.9998 15.4585 93.0153 15.4961 93.0153 15.5353C93.0153 15.5745 92.9997 15.6121 92.9719 15.6399Z" fill="black"/>
<path d="M57.8574 25.9995H53.153C53.1139 25.9994 53.0763 25.9838 53.0486 25.9561C53.0209 25.9284 53.0054 25.8909 53.0054 25.8517V21.1473C53.0054 21.0659 53.0716 20.9995 53.1533 20.9995H57.8574C57.8967 20.9995 57.9343 21.0151 57.962 21.0428C57.9898 21.0705 58.0054 21.1081 58.0054 21.1473V25.8517C58.0054 25.8909 57.9898 25.9285 57.962 25.9562C57.9343 25.9839 57.8967 25.9995 57.8574 25.9995Z" fill="black"/>
<path d="M18 6.00098C18.0376 6.01159 18.0576 6.08141 18.0557 6.19531C18.0538 6.30963 18.0298 6.45887 17.9893 6.61035L13.1797 25.4678C13.1391 25.6191 13.0857 25.7604 13.0303 25.8604C12.9747 25.9604 12.9217 26.0111 12.8838 26.001H7.5C8.0004 24.9257 8.26036 24.4867 8.34473 24.1719L13.2031 6.53418C13.2437 6.38284 13.2981 6.24158 13.3535 6.1416C13.409 6.04161 13.462 5.99109 13.5 6.00098H18Z" fill="black"/>
<path d="M0.0559082 6.00244C0.0182713 6.01306 -0.00164251 6.08287 0.000244141 6.19678C0.00214556 6.31109 0.0260758 6.46033 0.0666504 6.61182L4.87622 25.4692C4.91678 25.6206 4.97018 25.7619 5.02563 25.8618C5.08118 25.9618 5.13418 26.0126 5.17212 26.0024H10.5559C10.0555 24.9272 9.79555 24.4882 9.71118 24.1733L4.85278 6.53564C4.81223 6.38431 4.75785 6.24305 4.70239 6.14307C4.64691 6.04308 4.59388 5.99255 4.55591 6.00244H0.0559082Z" fill="#C4EE18"/>
<path d="M51.0054 26.0024C51.043 25.9918 51.0629 25.922 51.061 25.8081C51.0591 25.6938 51.0352 25.5446 50.9946 25.3931L46.1851 6.53564C46.1445 6.38431 46.0911 6.24301 46.0356 6.14307C45.9801 6.04306 45.9271 5.99228 45.8892 6.00244H40.5054C41.0058 7.07768 41.2657 7.51669 41.3501 7.83154L46.2085 25.4692C46.249 25.6206 46.3034 25.7618 46.3589 25.8618C46.4144 25.9618 46.4674 26.0123 46.5054 26.0024H51.0054Z" fill="black"/>
<path d="M33.0613 26.001C33.0236 25.9904 33.0037 25.9205 33.0056 25.8066C33.0075 25.6923 33.0314 25.5431 33.072 25.3916L37.8816 6.53418C37.9222 6.38285 37.9756 6.24154 38.031 6.1416C38.0866 6.0416 38.1396 5.99081 38.1775 6.00098H43.5613C43.0609 7.07621 42.8009 7.51522 42.7166 7.83008L37.8582 25.4678C37.8176 25.6191 37.7632 25.7604 37.7078 25.8604C37.6523 25.9603 37.5992 26.0109 37.5613 26.001H33.0613Z" fill="black"/>
</svg>
